<?xml version="1.0" encoding="utf-8"?>
<!-- Generator: $$$/GeneralStr/196=Adobe Illustrator 27.6.0, SVG Export Plug-In . SVG Version: 6.00 Build 0)  -->
<svg version="1.1" id="Calque_1" xmlns="http://www.w3.org/2000/svg" xmlns:xlink="http://www.w3.org/1999/xlink" x="0px" y="0px"
	 viewBox="0 0 100 100" style="enable-background:new 0 0 100 100;" xml:space="preserve">
<style type="text/css">
	.st0{fill:#008800;}
</style>
<path class="st0" d="M85.7,21.9c-0.1-0.1-0.2-0.2-0.4-0.2c-0.1-0.8-0.6-1.8-1.4-2.6c-1.4-1.4-3.8-1.8-5.6-1.1
	c-0.4,0.2-1.2,0.5-1,1.1c0.1,0.3,0.3,0.4,0.6,0.4c-0.7,0.6-1.3,1.2-1.8,2c0.5-0.9,0.7-1.5,0.7-2c0-0.1,0-0.2,0-0.2
	c0.1,0,0.2-0.1,0.3-0.1c0.3-0.3,0.2-0.8-0.1-1.7c0-0.1-0.1-0.2-0.1-0.3c0,0,0,0,0.1-0.1c0.4-0.5-0.5-1.6-1-2.1
	c-1.4-1.5-4.7-2.1-6.1-1l0,0c-0.9,0.7-1.5,1.5-2,2.5c-0.2,0.5-0.8,1.4-1.2,2.1c-1,1.5-5.8,11-5.8,11.7c0,0.8,0.6,1.7,1.4,2.4
	l-1.7,0.1c-0.9,0.1-1.6,0.2-2.2,0.6l-1-0.4c-1.1-0.4-3,0.2-5,1.5c0,0,0,0,0,0L52,34.1h-0.3c-0.3,0-1.4,0.6-2,1c0,0,0-0.1-0.1-0.1
	c0,0-0.1-0.1-0.1-0.1c1.2-0.4,2.4-0.8,3.6-1.3c0.3-0.1,4-1.9,4-2.8c0-0.1,0-0.3-0.7-1.2c-0.3-0.4-0.4-0.6-0.5-0.7
	C55.8,28.1,55,28,52,27.9c-1.1,0-1.6-0.1-2.1-0.2c0.3,0.1,0.6,0.1,0.8,0.1c0.2,0,0.7-0.1,0.8-0.5c0.1-0.4-0.2-0.6-1.5-1.3
	c0.1,0,0.2-0.1,0.3-0.2c0.2-0.3,0.1-0.6,0-0.8c0.6,0.6,2,1.5,2.7,1.5c0,0,0,0,0.1,0c0.2,0,0.4-0.1,0.5-0.2c0.1,0,0.2-0.1,0.4-0.1
	c1-0.1,1-0.3,1.5-3.3c0.1-0.7,0.5-2.2,0.7-3.3c0.3-1.1,0.6-2.3,0.6-2.8c0.1-0.4,0.3-0.9,0.4-1c0.3-0.4,0.6-0.9,0.6-1.4
	c0-0.3,0.1-0.8,0.2-1c0.1-0.3,0.1-0.5,0.1-0.7l0.4,0.3l0.6-0.7c-0.3,0.4-0.5,0.9-0.8,1.5c-1.6,3.4-2.3,5.9-2.7,9.1
	c0,0.3-0.3,2.9-0.2,3.5c0.1,0.4,0.6,1.1,1,1.6c0,0,0,0,0,0c-0.2,0.3,0.1,0.6,0.2,0.8c0.5,0.6,1.9,1.2,2.7,1.2c0.2,0,0.9,0,1-0.5
	c0-0.2,0-0.4-0.2-0.5c0.2,0,0.4-0.2,0.6-0.4c0.8-1,1.8-2.7,2.6-4.4c0.5-1,1.1-2.2,1.4-2.7c2.2-3.9,2.5-4.7,2.5-4.9
	c0-0.1,0.2-0.4,0.5-0.7c0.8-0.9,1-2.2,0.4-3.4c-0.5-1-1.8-2-2.8-2.3c-0.1,0-0.2-0.1-0.3-0.1c0-0.1,0-0.2,0-0.3
	c-0.4-0.8-2.8-0.1-2.9,0c-1.2,0.4-2.1,1.1-2.9,2.5l-0.7-0.7c-1.2-1.3-2.2-1.7-3.6-1.5c-0.5,0.1-1.3,0.4-1.9,0.8
	c-1.1,0.6-1.3,0.9-2.1,2.3c-0.2,0.3-0.3,0.7-0.5,1l-0.1-1.4l-1.6,1.8c-0.4,0.4-0.7,0.7-0.8,0.8c-0.7,0.1-1,1.2-1,2.2
	c0,0.1,0,0.2,0,0.3l-0.1,0c-0.2,0-0.5,0.1-1.1,1.2c-0.3,0.6-1.1,2-2,3.3c-2.2,3.5-2.7,4.9-3.3,9c-0.2,1.2-0.4,2.9-0.6,3.8
	c-0.5,2.8-0.3,4.1,0.9,5.5c0.3,0.3,2.1,1.9,2.8,1.7L44,42v-0.3c0-0.1,0-0.2-0.2-0.5c0.1,0.1,0.3,0.3,0.4,0.4c0.6,0.6,1,1,1.4,1.4
	c-0.3-0.1-0.6-0.2-0.9-0.3c-1.7-0.5-2.6-0.9-3.2-1.6c-0.4-0.4-0.7-0.6-1.1-0.5L40,40.7v0.3c0,0.4,0.3,1.4,0.7,2.3
	c-0.3-0.3-0.5-0.6-0.5-0.8l-0.6-1.8l-1.2,2.5c-0.8,1.8-2.1,3.5-4.6,6.3c-2.6,2.9-4.5,4.4-5,4.7c0-0.3,0.2-1.2,0.2-1.4
	c0.5-2.2-0.3-4.8-2.2-7.1l-0.8-1l0.2-4.9c0.2-5.2,0.2-5.3-0.3-6.3c-0.5-0.9-1.3-1.6-2.2-1.9c-1-0.3-2.1-0.2-3,0.3
	c-1.3,0.8-2.1,2.2-1.9,3.7c0.2,1.6,1.3,2.9,2.9,3.3l0.4,0.1l-0.1,1.6c-0.1,0.8-0.1,1.2-0.1,1.5c-0.3-0.1-0.6-0.2-1.1-0.3
	c-1.3-0.3-2-0.4-3.6-0.4l-1.3,0.1l0.1-1.5c0.1-1.2,0.2-3.7,0.2-5.7c0.1-3.5,0.1-3.7-0.4-4.7c-0.8-1.4-2.3-2.2-3.9-2
	c-1.6,0.2-2.9,1.4-3.2,3.1c-0.4,1.9,0.9,3.8,2.7,4.4l0.5,0.1l-0.1,0.9c0,0.7-0.1,2.7-0.2,4.5l-0.1,3l-0.9,1
	c-0.6,0.6-1.4,1.9-1.8,2.7C8,48.6,7.9,49,7.8,50.9c-0.1,1.7,0,2.3,0.4,3.5c0.9,2.6,2.6,4.7,5,5.8l1,0.5l0,4.3c0,6.8,0.4,10,1.8,13.5
	c1.4,3.4,4.1,6.4,7.5,8.4c2,1.1,5.7,2.4,8.7,3c3.6,0.7,11.8,1.2,20.5,1.2c1.6,0,3.2,0,4.8,0c10.6-0.2,15.8-0.9,17.5-2.3
	c0.9-0.8,1-1.5,0.3-2.4c-1-1.2-3.8-2.3-12.2-4.6c-7.8-2.1-12.2-3.5-16.7-5.5c-1-0.4-1.8-0.8-1.9-1.1c-0.1-0.3,0.4-1.1,1-2
	c1.6-2.7,2.4-4,5.2-9.2c3-5.5,4.5-8.1,5.9-10.2c1.1-1.8,1.1-1.8,1.1-2l0-0.2l-0.2-0.1c-0.2-0.2-0.2-0.2-1.3-0.1l1.8-0.9h-1.6
	c0,0,0,0,0,0l0.2-0.2v-0.2c0-0.4-0.1-0.4-1.4-1c-0.6-0.3-1.7-0.9-2.4-1.3c-0.8-0.5-1.8-1.1-2.2-1.3c-0.8-0.4-1.3-1.1-2-2.5
	c0,0,0-0.1-0.1-0.1l0,0c0.4-0.3,0.2-0.7-0.2-1.4c-0.4-0.7-1-1.4-1.5-1.8c0,0,0,0-0.1-0.1c0.1-0.1,0.2-0.3,0.3-0.5
	c0,0.1,0.1,0.2,0.1,0.4c0.1,0.3,0.4,0.8,0.9,0.8c0.5-0.1,0.6-0.6,0.7-0.9c0-0.1,0-0.2,0.1-0.2c-0.2,0.8-0.1,1.7,0.2,2.8
	c0.4,1.4,1.1,2.3,3.1,4c4.1,3.4,7,4,13.8,2.8l4.4-0.8L68,47.2c0,0-0.1,0-0.1,0l0.1,0l0.1-0.2c1.6,1.6,3.1,1.9,5.1,1
	c1.4-0.7,2.9-2,4.8-4.5c0.8-1.1,1.8-2.3,2.1-2.7l1.5-1.7c0.8-0.4,1.2-0.8,1.6-1.7c0.6-1.2,0.8-3.6,0.1-4.8c-0.3-0.5-1-1.3-1.7-2
	l1.2-2.1c0.6-1.1,1.3-2.5,1.6-3.2c0.1-0.2,0.1-0.3,0.2-0.4c0,0,0,0,0.1,0c0.4,0.1,0.6-0.2,0.8-0.7C85.9,23.6,86.1,22.4,85.7,21.9z
	 M49.5,21.5c-0.1-0.2-0.3-0.4-0.5-0.6c0,0-0.1-0.1-0.1-0.1c0.2,0,0.3,0,0.4-0.2c0.1-0.1,0.1-0.2,0.2-0.3c0,0.1,0,0.2,0,0.4
	L49.5,21.5z M49.8,16.4c0,0.3-0.1,0.6-0.1,1l0-0.2c0-0.1,0-0.4-0.1-0.6C49.6,16.5,49.7,16.4,49.8,16.4z M48.7,18.6l0.9,0.8
	c0,0.2,0,0.5,0,0.7c-0.1-0.3-0.3-0.7-0.6-1.1C48.8,18.9,48.7,18.7,48.7,18.6z M48.7,23.7c0.2,0,0.4,0,0.6-0.1
	c0.1-0.1,0.1-0.1,0.2-0.2l0,0.7l0.3,0.3C49.5,24.2,49.1,23.9,48.7,23.7z M75.1,23.1l-0.8,1.6c-0.1-0.1-0.2-0.2-0.4-0.3
	C74.3,24.3,74.6,24,75.1,23.1C75.1,23.1,75.1,23.1,75.1,23.1z M75.1,27.9c0-0.2-0.1-0.5-0.1-0.7C75.1,27.4,75.1,27.7,75.1,27.9z
	 M72.1,32c0,0.1,0.1,0.1,0.1,0.1c-0.2,0-0.5,0-0.8-0.1c-0.1,0-0.1,0-0.2-0.1c0,0,0,0,0,0c0.1,0,0.3,0,0.4-0.1c0.1,0,0.2-0.1,0.4-0.5
	c0,0,0.1,0,0.1,0C72,31.6,71.9,31.8,72.1,32z M67.7,29.1c0-0.2,0-0.3,0-0.5c0.1,0.1,0.1,0.1,0.3,0.1c0.1,0,0.2,0,0.3,0
	c0,0.8,0.1,1.6,0.5,2c0,0.1,0.1,0.1,0.2,0.2c-0.4-0.2-0.7-0.5-0.9-0.7C67.6,29.9,67.6,29.9,67.7,29.1z M63.7,35.7
	c0.2-0.4,0.3-0.7,0-1c-0.4-0.3-1.2-0.6-1.7-0.6c-0.5,0-1.5,0.4-2.4,1c0.4-0.3,0.8-0.6,1.2-0.8l1.9-1c0.4,0.3,0.9,0.6,1.3,0.8
	c0.4,0.2,0.8,0.3,1.1,0.3c0.2,0,0.4-0.1,0.5-0.3c0.3-0.5-0.3-0.8-0.6-1c0,0-0.1-0.1-0.2-0.1c0.9,0.4,1,0.4,1.1,0.4l0.3,0l0.1-0.3
	c0.1-0.3,0-0.6-0.6-1.4c-0.3-0.4-0.5-0.6-0.5-0.7c0.2-0.1,0.3-0.4,0.4-0.9c0.2,0.9,0.5,1.9,1,2.8c0.3,0.5,0.7,1.1,1.2,1.7l-2.2,0.4
	C65.3,35,64.4,35.4,63.7,35.7C63.7,35.7,63.7,35.7,63.7,35.7z M68.9,39.3c-0.1,0.2-0.1,0.4-0.1,0.7c-0.1-0.1-0.2-0.2-0.4-0.3
	c-0.4-0.1-0.6,0.2-0.7,0.4c-0.3,0.5-0.4,1.2-0.3,2c0,0,0,0,0-0.1c-0.3-0.5-0.3-1.7,0-2.7c0.3-0.9,0.3-1.2,0.1-1.5
	c-0.1-0.1-0.3-0.2-0.4-0.2c0,0-0.1,0-0.1,0c-0.4,0.1-0.9,0.6-1.3,1.2c0.3-0.7,0.6-1.2,1.2-1.7c0.3-0.3,0.9-0.8,0.5-1.2
	c-0.1-0.2-0.3-0.2-0.4-0.2l1-1c0.5,0.6,1.1,1.2,1.7,1.7L68.9,39.3z M74.1,38.8c-0.3-0.1-0.7-0.2-1.1-0.3c-1.2-0.4-1.3-0.4-1.4-0.3
	l-0.3,0.3l0,0.3c0,0.1,0.1,0.2,0.2,0.4c-0.5-0.4-0.9-0.5-1.2-0.2c-0.1,0.2-0.2,0.4-0.2,0.6c0,0,0-0.1,0-0.1L70,36.6
	c0.6,0.5,1.2,0.9,1.7,1.1c1.1,0.6,1.5,0.6,3.3,0.6c0,0,0,0,0,0L74.1,38.8z"/>
<path d="M61.1,9.7c-0.6,0.3-1.2,0.8-1.4,1c-0.2,0.3-0.4,0.5-0.5,0.5c-0.1,0-0.6-0.3-1.2-0.8c-1.1-0.7-1.2-0.7-2.7-0.7
	c-2.2,0-3.4,0.6-4.9,2.3c-0.6,0.7-1.7,1.9-2.4,2.7c-1,1.1-1.5,1.9-2.1,3.3c-0.4,1-1.5,3-2.4,4.3c-2.7,4.2-3.3,5.6-3.6,9.1
	c-0.3,3.3-1.1,8.1-1.6,9.6c-1,3.3-2.6,5.8-6.1,9.4l-2.6,2.7l0-1.4c0-2.5-0.6-4.1-2.3-6.2l-0.9-1.1l0.2-4.9c0.2-4.4,0.2-5-0.1-5.8
	c-0.7-1.9-2.2-2.9-4.1-2.9c-2.6,0-4.5,1.9-4.5,4.4c0,1.8,0.9,3.2,2.5,4c0.6,0.3,0.6,0.4,0.6,1.2v0.9L19.7,41
	c-0.8-0.1-1.8-0.2-2.3-0.2l-0.9,0l0.1-3.7c0.2-6.7,0.2-6.8-0.5-7.9c-1.5-2.6-5-3-7-0.9c-0.5,0.5-0.9,1.1-1,1.4
	c-0.4,1.2-0.5,2.3,0,3.3c0.3,0.8,1.4,1.9,2.2,2.3l0.8,0.4l-0.1,3.7l-0.1,3.7l-0.9,1c-2,2.2-2.9,4-2.9,7.2c0,2,0.3,2.6,0.8,3.7
	c0.9,2.4,2.9,4.7,5,5.7l0.7,0.3l-0.1,3.5c-0.1,3.7,0.2,7.6,0.7,10c2.2,10.6,9.9,15.8,25.1,16.7c4.1,0.3,22.8,0.3,26.2,0
	c5.4-0.4,8.8-1.2,10.1-2.4c0.5-0.5,0.6-0.7,0.6-1.6c0-1-0.1-1.1-0.9-1.9c-1.4-1.3-3.9-2.2-13-4.7c-6.9-1.8-13.6-4.1-16.4-5.5
	l-0.8-0.4l0.9-1.4c0.5-0.8,2.3-4.2,4.1-7.5c3.9-7.2,5.7-10.2,7.4-12.5c1.6-2.1,2.3-2.7,4.1-2.8c0.8-0.1,2.9-0.4,4.7-0.8
	c1.9-0.4,4-0.8,4.7-0.9c3.3-0.5,4.4-1.3,7.2-5.5c1-1.6,2.3-3.2,2.8-3.6c2.7-2.3,3-2.8,3-4.9c0-1.3-0.4-2.2-1.2-3.2
	c-0.5-0.6-0.6-0.9-0.5-1.2c0.2-0.7,1.8-3.9,2.6-5.2c0.6-1,0.7-1.3,0.7-2.5c0-1.2-0.1-1.4-0.9-2.6c-1.3-2-3.1-2.9-5.8-2.9h-1.3
	l-0.4-0.9c-0.9-2.1-3.1-3.3-6.6-3.4L68.6,13l-0.2-0.6c-0.3-0.8-1.7-2.2-2.6-2.7c-0.4-0.2-1.3-0.4-2.2-0.4
	C62.3,9.2,62.1,9.3,61.1,9.7z M64.7,10l-0.6,0.2l0.8,0.2c1.2,0.4,2,0.9,2.6,1.8c0.8,1.2,0.8,2.2,0,3.3c-0.3,0.4-0.6,0.9-0.5,1
	c0,0.1-0.1,0.3-0.2,0.5c-0.3,0.3-1.9,3.2-3.8,7.1c-0.7,1.3-1.5,2.8-1.8,3.2c-0.4,0.5-0.7,1-0.7,1.1c0,0.3-1.5,0-2.2-0.5
	c-0.3-0.2-0.6-0.3-0.6-0.2c0,0.3,0.9,1,1.7,1.2c1.1,0.4,0.8,0.7-0.4,0.6c-0.5,0-1.9-0.9-2.3-1.3c-0.2-0.3-0.2-0.3,0.2-0.2
	c0.4,0.1,0.4,0.1-0.1-0.4c-0.9-0.9-1-1.6-0.9-3.7c0.4-4,1-6.3,2.8-10c1.5-3.1,2.7-4,5.3-4C65,9.9,65.2,9.9,64.7,10z M56.9,10.6
	c0.9,0.4,2,1.5,1.8,1.7c-0.1,0.1-0.4-0.1-0.7-0.4c-0.8-0.7-1.3-0.7-0.6,0c0.4,0.4,0.5,0.6,0.3,0.8c-0.1,0.2-0.2,0.7-0.3,1.2
	c-0.1,0.5-0.3,1.1-0.5,1.4c-0.2,0.3-0.4,0.7-0.5,1c-0.1,0.3-0.3,1.3-0.5,2.1c-0.6,2.2-1.2,5.5-1.2,6.3c0,0.7-0.1,0.8-0.5,0.8
	c-0.7,0-0.9,0.3-0.3,0.5c0.3,0.1,0.2,0.1-0.2,0.1c-1,0-2.2-0.6-3.1-1.6l-0.8-0.9l0.1-3.4c0-3.8,0.2-4.7,1.3-7
	c0.7-1.6,0.8-1.6,2.2-2.3C55,10.1,55.8,10,56.9,10.6z M50.3,13.6c-0.2,0.1-0.3,0.4-0.3,0.8c0,1.2-0.6,2.3-0.9,1.6
	c-0.1-0.1-0.1,0.3,0,1c0.1,1.4-0.1,1.6-0.8,0.6c-0.2-0.4-0.5-0.7-0.5-0.7c-0.3,0,0.2,1.8,0.8,2.4c0.8,1,0.7,1.3-0.3,0.6l-0.8-0.5
	l0.2,0.5c0.1,0.2,0.5,0.7,0.8,1c0.5,0.6,0.9,2.2,0.6,2.4c-0.1,0.1-1.4-0.3-2.6-0.8c-0.2-0.1-0.4-0.1-0.4,0.1c0,0.3,1.9,1.3,2.6,1.5
	c0.3,0.1,0.7,0.4,0.9,0.7c0.3,0.6,0.3,0.6-0.1,0.6c-0.3,0-0.8-0.1-1.1-0.2c-0.3-0.1-0.6-0.2-0.6-0.1c0,0,0.8,0.5,1.8,1
	c1,0.5,1.8,1,1.8,1.1c0,0.3-1.7,0-3.6-0.7c-2.1-0.8-1.9-0.5,0.3,0.7c1.8,0.9,3.5,1.3,5,1.1c1.2-0.1,2.5,0.2,2.5,0.6
	c0,0.2,0.3,0.6,0.6,1l0.6,0.7L56.3,31c-1.7,1.4-3.9,2.5-6.8,3.3c-0.7,0.2-1.7,0.6-2.4,0.8c-0.7,0.2-1.7,0.5-2.4,0.5
	c-1,0.1-1.1,0.2-0.7,0.3c0.9,0.4,2.3,0.2,3.6-0.4c1.6-0.7,1.8-0.8,1.4-0.1c-0.3,0.5-0.2,0.4,1-0.2c1.4-0.8,1.9-0.8,1.3,0
	c-0.3,0.4-0.3,0.3,0.3-0.1c1.9-1.4,4.8-2.3,5.6-1.7c0.4,0.3,0.3,0.3-0.5,1c-0.5,0.4-1,0.9-1.1,1.2c-0.1,0.2,0.3,0,0.9-0.6
	c0.6-0.6,1.5-1.2,1.9-1.4c0.9-0.4,2.6-0.7,3-0.5c0.3,0.1,0.1,0.3-0.8,0.7c-1.3,0.7-2.5,1.8-3,2.9c-0.5,1.1-0.5,1.3,0.1,0.4
	c0.8-1.1,3.2-2.6,4.3-2.6c0.3,0,0.8,0.1,1.1,0.2l0.5,0.2l-0.5,0.9l-0.5,0.9l1.1-0.6c0.7-0.4,1.5-0.7,2.1-0.7l1.1-0.1l-0.6,0.4
	c-0.3,0.2-0.7,0.6-0.8,0.7c-0.1,0.2,0,0.2,0.7-0.1c0.5-0.2,1.1-0.4,1.2-0.3c0.3,0.1,0.2,0.1-0.2,0.3c-0.7,0.3-1.7,1.3-2.1,2.2
	c-0.2,0.4-0.4,1.1-0.4,1.7l-0.1,1l0.6-1.2c0.5-1.1,1.4-2.1,1.9-2.1c0.1,0,0.1,0.2,0.1,0.3c-0.1,0.2-0.3,0.9-0.5,1.5
	c-0.4,1.4-0.1,2.4,0.9,3.5c0.5,0.5,0.6,0.6,0.6,0.3c-0.7-2-0.7-2-0.5-2.7c0.1-0.4,0.3-0.7,0.4-0.7c0.1,0,0.4,0.5,0.6,1.1
	c0.4,1.1,1,2,0.7,1c-0.1-0.3-0.2-1.1-0.3-1.8c-0.1-1,0-1.4,0.2-1.7c0.3-0.4,0.3-0.3,0.3,0.6c0,1.1,0.4,2.1,1.1,2.7l0.5,0.5l-0.5-1.1
	c-0.4-0.8-0.5-1.3-0.4-1.7c0.1-0.3,0.2-0.6,0.2-0.6c0.1,0,0.4,0.2,0.8,0.5c0.6,0.5,2,1.1,2.5,1.1c0.1,0,0-0.1-0.4-0.3
	C73,40,72,39.2,71.7,38.7c-0.2-0.3,0-0.3,1.2,0.2c0.8,0.3,1.8,0.5,2.3,0.5l0.9,0l-0.8-0.2l-0.8-0.2l1-0.4l1-0.5l-1.1,0.1
	c-2.1,0.2-4.4-0.8-6.3-2.7c-1.7-1.7-2.9-4.1-3.2-6.5c-0.3-1.9,0.8-4.3,2.3-5.2c0.9-0.6,2.7-0.5,3.9,0.1c0.5,0.3,2.2,1.6,3.8,3
	c1.6,1.4,3.4,2.8,3.9,3.1c1.3,0.7,2.6,2,3.1,3c0.5,1,0.5,2.6,0.1,3.9c-0.5,1.4-1.3,2-3.6,2.6c-1.1,0.3-2,0.6-2,0.7
	c0,0.1-0.4,0.4-0.8,0.6l-0.9,0.4L77,41c0.6,0,1.3-0.2,1.5-0.4c0.4-0.4,2.2-1.1,2.2-1c0,0.1-0.3,0.4-0.6,0.8
	c-0.3,0.3-1.4,1.6-2.4,2.9c-1.9,2.5-3,3.5-4.3,4.2c-2,1-3.1,0.8-4.6-0.7c-0.5-0.5-0.9-0.9-0.8-0.8c0.1,0.1,0.1,0.4,0,0.6
	c-0.1,0.3-0.2,0.3-0.6-0.2c-0.6-0.6-1-1.3-1.2-2.3l-0.2-0.8l0,0.7c0,1.3,0.6,2.4,2,3.4l1.2,0.9l-0.7,0.1c-4.6,0.8-5.9,1-7.4,1.1
	c-1,0.1-1.8,0.1-1.8,0c0-0.1-0.2-0.2-0.5-0.2c-1.3,0-4.1-1.3-6.1-2.9c-2.5-2-3.4-3.2-3.6-5.3c-0.2-1.2,0.2-2.1,1.6-3.6
	c0.9-1,0.9-1,0.3-0.7c-1,0.6-2.4,2.2-2.6,3.2l-0.3,0.9l-0.3-0.5c-0.5-0.7-0.4-1.3,0.2-2.2c0.4-0.7,0.5-0.7,0.1-0.5
	c-0.6,0.3-1.4,1.4-1.4,1.9c0,0.3-0.1,0.5-0.3,0.5s0,0.2,0.5,0.7c0.5,0.4,1,1.2,1.3,1.7c0.5,0.9,0.5,1,0.1,0.8
	c-0.4-0.2-0.4-0.2,0.1,0.8c0.7,1.3,1.3,2.1,2.4,2.6c0.4,0.2,1.3,0.8,2,1.2c0.6,0.4,1.8,1.1,2.6,1.4l1.4,0.7l-0.8,0
	c-1.2,0-3.6-0.7-5-1.6c-2.3-1.4-2.5-1.3-0.6,0.3c1.3,1.1,2.8,1.7,4.7,1.9l1.4,0.1l-0.8,0.4c-0.5,0.2-0.9,0.5-0.9,0.6
	c0,0.1,0.6,0.1,1.4,0c1-0.1,1.4-0.1,1.3,0.1c-0.1,0.1-0.5,0.7-0.9,1.3c-1,1.5-4,6.8-6.6,11.6c-1.2,2.2-2.9,5.3-3.9,6.9
	c-1,1.6-1.8,3.1-1.8,3.4c0,0.6,0.4,0.8,4,2.3c3.4,1.4,8.1,2.9,15.7,5c8.1,2.2,10,2.9,11.1,4c0.7,0.7,0.6,1.5,0,2.1
	c-1.2,0.9-4.8,1.6-10.3,2c-3.8,0.2-18.3,0.3-23.5,0c-10.2-0.5-16.5-2.5-20.8-6.6c-2.2-2.1-3.6-4.5-4.5-7.8c-0.8-2.9-1-4.7-1-10.4
	v-5.3l-1.1-0.5c-1.5-0.7-3.6-2.7-4.3-4.3c-1.3-2.8-1.3-5.7,0.1-8.5c0.4-0.9,1.1-1.9,1.7-2.4l0.9-1l0.2-4.5l0.1-4.5l-0.7-0.1
	c-0.8-0.2-1.9-1-2.3-1.7c-0.4-0.7-0.4-2.4,0-3.1c0.4-0.8,1.4-1.6,2.3-1.8c1.4-0.4,3.2,0.4,3.9,1.8c0.3,0.5,0.3,1.3,0.2,6.4L15.4,42
	l1.1-0.2c1.3-0.2,3.2,0,4.6,0.5c0.5,0.2,0.9,0.3,0.9,0.3c0,0,0.1-0.9,0.1-2.1v-2.1l-0.5-0.1c-2.8-0.6-3.6-4.4-1.2-6.1
	c0.8-0.5,1.9-0.8,2.8-0.5c1,0.3,2.2,1.4,2.4,2.4c0.1,0.4,0.1,2.6,0,5.7l-0.2,5l0.9,1c1.9,2.2,2.7,4.9,2,7.4c-0.2,0.9-0.2,1.1,0,1.2
	c0.5,0.3,1.6-0.6,4.5-3.6c3-3,4.8-5.4,5.8-7.6l0.8-1.6l0.2,0.7c0.2,0.7,0.9,1.5,1.9,2.3l0.6,0.5l-0.5-0.9c-0.5-0.9-1.3-3.4-1.3-4
	c0-0.2,0.2,0,0.4,0.4c0.5,0.8,1.9,1.6,3.8,2.1c0.9,0.2,1.8,0.6,2.1,0.8l0.6,0.4l-0.4-0.5c-0.2-0.3-1.4-1.5-2.6-2.7
	c-1.2-1.2-2.4-2.5-2.6-2.8l-0.4-0.6l0.3,0.8c0.4,0.9,1,1.9,2.1,2.9c0.4,0.4,0.6,0.8,0.6,0.8c-0.4,0-2.6-1.4-3-2
	c-1-1.2-1.1-2.7-0.5-6.9c0.2-1.1,0.5-2.9,0.6-3.9c0.4-2.4,1-3.9,3-7.1c0.9-1.4,1.8-3,2-3.5c0.3-0.7,0.5-0.9,0.7-0.7
	c0.2,0.2,0.3,0,0.3-0.8c0.1-0.9,0.2-1.1,1.7-2.5c0.9-0.9,1.6-1.5,1.6-1.4C50.6,13.4,50.5,13.5,50.3,13.6z M74.1,14.2
	c0.9,0.4,2.2,1.5,2.2,1.9c0,0.1,0.1,0.4,0.1,0.6c0,0.3,0.1,0.8,0.2,1.2c0.1,0.5,0.1,0.8-0.1,0.8c-0.1,0-0.2,0.3-0.2,0.7
	c0,0.7-1.2,3.1-2.2,4.4l-0.4,0.5l-1-0.7c-1.4-1-2.2-1.2-3.5-0.8c-1.3,0.4-2.9,1.7-3.5,3c-0.3,0.7-0.4,1.2-0.4,2.7c0,1-0.1,2-0.2,2.1
	c-0.3,0.3-0.1,0.7,0.6,1.5c0.9,1,0.5,1-1.4,0c-0.8-0.4-1.4-0.7-1.4-0.6c0,0.1,0.6,0.6,1.2,1.2c1.7,1.4,1.7,1.3,0.9,1.2
	c-1.1-0.2-1.8-0.7-2.8-1.8c-0.9-0.9-1-1.4-0.9-2.2c0.1-0.5,4.6-9.4,5.5-10.9c0.5-0.7,1.1-1.9,1.4-2.5c0.3-0.6,1-1.5,1.4-1.9l0.9-0.7
	l-0.8,0.3c-0.9,0.4-1,0.4-0.9,0.1C69.1,13.4,72.5,13.5,74.1,14.2z M82.4,18.6c0.9,0.4,2.1,1.7,2.3,2.5c0.1,0.3,0.3,0.6,0.4,0.7
	c0.4,0.3,0.4,1.4,0.1,2.3l-0.3,0.7l-0.1-0.6c-0.1-0.5-0.2-0.5-0.6,0.8c-0.3,0.8-0.8,1.9-1.2,2.6c-0.4,0.7-0.9,1.6-1.1,2l-0.4,0.8
	l-1.4-1c-1.6-1.1-5.3-4.2-5.3-4.4c0-0.1,0.4-0.9,0.8-1.9c0.8-1.8,1.3-2.4,3-3.7l0.8-0.6L78.4,19c-1.1,0.1-1.2,0.1-0.5-0.4
	C79.1,17.9,80.9,17.9,82.4,18.6z"/>
<path d="M70.1,24.2c-1.6,0.6-2.7,2.3-2.8,4.7l-0.1,1.3l0.9,0.6c1.2,0.9,3.1,1.8,3.8,1.8c0.7,0,1.8-0.6,2.1-1.2
	c0.2-0.4,0.2-0.4-0.6,0.1C72.8,31.8,72.2,32,72,32c-0.4,0-0.3-0.1,0.4-0.5c0.5-0.2,1.4-0.9,2-1.5c1.1-1,1.1-1.2,1.1-2
	c0-0.5-0.1-1.1-0.3-1.3c-0.3-0.4-0.3-0.4-0.2,0c0.1,0.2-0.4-0.2-1.1-0.8C72.2,24.1,71.3,23.7,70.1,24.2z M72,24.7
	c3.4,1.7,3.7,4.4,0.7,6.3l-0.6,0.4l0.1-0.8c0.1-0.4,0.3-1,0.4-1.2c0.2-0.2,0.3-0.5,0.3-0.6c0-0.4-0.8,1.1-1.1,2
	c-0.4,1.1-0.7,1.2-2,0.5c-0.7-0.4-0.9-0.7-1.1-1.3c-0.3-1.1,0-2.5,0.8-3.8c0.5-0.9,0.5-0.9,0.2-0.6C69.1,26,68.2,28,68.2,29
	c0,0.7,0,0.8-0.2,0.5c-0.5-0.9,0.3-3.7,1.4-4.7C70.1,24.2,70.9,24.1,72,24.7z"/>
</svg>
