<?xml version="1.0" encoding="utf-8"?>
<!-- Generator: $$$/GeneralStr/196=Adobe Illustrator 27.6.0, SVG Export Plug-In . SVG Version: 6.00 Build 0)  -->
<svg version="1.1" id="Calque_1" xmlns="http://www.w3.org/2000/svg" xmlns:xlink="http://www.w3.org/1999/xlink" x="0px" y="0px"
	 viewBox="0 0 307 100" style="enable-background:new 0 0 307 100;" xml:space="preserve">
<style type="text/css">
	.st0{fill:#008800;}
</style>
<path class="st0" d="M78.6,12.6c-0.1-0.1-0.2-0.2-0.4-0.2c-0.1-0.8-0.6-1.8-1.4-2.6C75.4,8.4,73,8,71.2,8.7c-0.4,0.2-1.2,0.5-1,1.1
	c0.1,0.3,0.3,0.4,0.6,0.4c-0.7,0.6-1.3,1.2-1.8,2c0.5-0.9,0.7-1.5,0.7-2c0-0.1,0-0.2,0-0.2c0.1,0,0.2-0.1,0.3-0.1
	c0.3-0.3,0.2-0.8-0.1-1.7c0-0.1-0.1-0.2-0.1-0.3c0,0,0,0,0.1-0.1c0.4-0.5-0.5-1.6-1-2.1c-1.4-1.5-4.7-2.1-6.1-1l0,0
	c-0.9,0.7-1.5,1.5-2,2.5c-0.2,0.5-0.8,1.4-1.2,2.1c-1,1.5-5.8,11-5.8,11.7c0,0.8,0.6,1.7,1.4,2.4l-1.7,0.1c-0.9,0.1-1.6,0.2-2.2,0.6
	l-1-0.4c-1.1-0.4-3,0.2-5,1.5l0,0l-0.4-0.4h-0.3c-0.3,0-1.4,0.6-2,1c0,0,0-0.1-0.1-0.1l-0.1-0.1c1.2-0.4,2.4-0.8,3.6-1.3
	c0.3-0.1,4-1.9,4-2.8c0-0.1,0-0.3-0.7-1.2c-0.3-0.4-0.4-0.6-0.5-0.7c-0.1-0.8-0.9-0.9-3.9-1c-1.1,0-1.6-0.1-2.1-0.2
	c0.3,0.1,0.6,0.1,0.8,0.1s0.7-0.1,0.8-0.5s-0.2-0.6-1.5-1.3c0.1,0,0.2-0.1,0.3-0.2c0.2-0.3,0.1-0.6,0-0.8c0.6,0.6,2,1.5,2.7,1.5
	c0,0,0,0,0.1,0c0.2,0,0.4-0.1,0.5-0.2c0.1,0,0.2-0.1,0.4-0.1c1-0.1,1-0.3,1.5-3.3c0.1-0.7,0.5-2.2,0.7-3.3c0.3-1.1,0.6-2.3,0.6-2.8
	c0.1-0.4,0.3-0.9,0.4-1c0.3-0.4,0.6-0.9,0.6-1.4c0-0.3,0.1-0.8,0.2-1C51,3.8,51,3.6,51,3.4l0.4,0.3L52,3c-0.3,0.4-0.5,0.9-0.8,1.5
	c-1.6,3.4-2.3,5.9-2.7,9.1c0,0.3-0.3,2.9-0.2,3.5c0.1,0.4,0.6,1.1,1,1.6l0,0c-0.2,0.3,0.1,0.6,0.2,0.8c0.5,0.6,1.9,1.2,2.7,1.2
	c0.2,0,0.9,0,1-0.5c0-0.2,0-0.4-0.2-0.5c0.2,0,0.4-0.2,0.6-0.4c0.8-1,1.8-2.7,2.6-4.4c0.5-1,1.1-2.2,1.4-2.7
	c2.2-3.9,2.5-4.7,2.5-4.9c0-0.1,0.2-0.4,0.5-0.7c0.8-0.9,1-2.2,0.4-3.4c-0.5-1-1.8-2-2.8-2.3c-0.1,0-0.2-0.1-0.3-0.1
	c0-0.1,0-0.2,0-0.3c-0.4-0.8-2.8-0.1-2.9,0c-1.2,0.4-2.1,1.1-2.9,2.5l-0.7-0.7c-1.2-1.3-2.2-1.7-3.6-1.5c-0.5,0.1-1.3,0.4-1.9,0.8
	c-1.1,0.6-1.3,0.9-2.1,2.3c-0.2,0.3-0.3,0.7-0.5,1l-0.1-1.4l-1.6,1.8c-0.4,0.4-0.7,0.7-0.8,0.8c-0.7,0.1-1,1.2-1,2.2
	c0,0.1,0,0.2,0,0.3h-0.1c-0.2,0-0.5,0.1-1.1,1.2c-0.3,0.6-1.1,2-2,3.3c-2.2,3.5-2.7,4.9-3.3,9c-0.2,1.2-0.4,2.9-0.6,3.8
	c-0.5,2.8-0.3,4.1,0.9,5.5c0.3,0.3,2.1,1.9,2.8,1.7l0.5-0.4v-0.3c0-0.1,0-0.2-0.2-0.5c0.1,0.1,0.3,0.3,0.4,0.4c0.6,0.6,1,1,1.4,1.4
	c-0.3-0.1-0.6-0.2-0.9-0.3c-1.7-0.5-2.6-0.9-3.2-1.6c-0.4-0.4-0.7-0.6-1.1-0.5l-0.4,0.1v0.3c0,0.4,0.3,1.4,0.7,2.3
	c-0.3-0.3-0.5-0.6-0.5-0.8l-0.6-1.8l-1.2,2.5c-0.8,1.8-2.1,3.5-4.6,6.3c-2.6,2.9-4.5,4.4-5,4.7c0-0.3,0.2-1.2,0.2-1.4
	c0.5-2.2-0.3-4.8-2.2-7.1l-0.8-1l0.2-4.9c0.2-5.2,0.2-5.3-0.3-6.3c-0.5-0.9-1.3-1.6-2.2-1.9c-1-0.3-2.1-0.2-3,0.3
	c-1.3,0.8-2.1,2.2-1.9,3.7c0.2,1.6,1.3,2.9,2.9,3.3l0.4,0.1l-0.1,1.6c-0.1,0.8-0.1,1.2-0.1,1.5c-0.3-0.1-0.6-0.2-1.1-0.3
	c-1.3-0.3-2-0.4-3.6-0.4l-1.3,0.1l0.1-1.5C9,29.5,9.1,27,9.1,25c0.1-3.5,0.1-3.7-0.4-4.7c-0.8-1.4-2.3-2.2-3.9-2s-2.9,1.4-3.2,3.1
	c-0.4,1.9,0.9,3.8,2.7,4.4l0.5,0.1l-0.1,0.9c0,0.7-0.1,2.7-0.2,4.5l-0.1,3l-0.9,1c-0.6,0.6-1.4,1.9-1.8,2.7c-0.8,1.3-0.9,1.7-1,3.6
	c-0.1,1.7,0,2.3,0.4,3.5c0.9,2.6,2.6,4.7,5,5.8l1,0.5v4.3c0,6.8,0.4,10,1.8,13.5c1.4,3.4,4.1,6.4,7.5,8.4c2,1.1,5.7,2.4,8.7,3
	c3.6,0.7,11.8,1.2,20.5,1.2c1.6,0,3.2,0,4.8,0c10.6-0.2,15.8-0.9,17.5-2.3c0.9-0.8,1-1.5,0.3-2.4c-1-1.2-3.8-2.3-12.2-4.6
	C48.2,70.4,43.8,69,39.3,67c-1-0.4-1.8-0.8-1.9-1.1c-0.1-0.3,0.4-1.1,1-2c1.6-2.7,2.4-4,5.2-9.2c3-5.5,4.5-8.1,5.9-10.2
	c1.1-1.8,1.1-1.8,1.1-2v-0.2l-0.2-0.1c-0.2-0.2-0.2-0.2-1.3-0.1l1.8-0.9h-1.6l0,0l0.2-0.2v-0.2c0-0.4-0.1-0.4-1.4-1
	c-0.6-0.3-1.7-0.9-2.4-1.3c-0.8-0.5-1.8-1.1-2.2-1.3c-0.8-0.4-1.3-1.1-2-2.5c0,0,0-0.1-0.1-0.1l0,0c0.4-0.3,0.2-0.7-0.2-1.4
	s-1-1.4-1.5-1.8c0,0,0,0-0.1-0.1c0.1-0.1,0.2-0.3,0.3-0.5c0,0.1,0.1,0.2,0.1,0.4c0.1,0.3,0.4,0.8,0.9,0.8c0.5-0.1,0.6-0.6,0.7-0.9
	c0-0.1,0-0.2,0.1-0.2c-0.2,0.8-0.1,1.7,0.2,2.8c0.4,1.4,1.1,2.3,3.1,4c4.1,3.4,7,4,13.8,2.8l4.4-0.8l-2.3-1.8h-0.1h0.1l0.1-0.2
	c1.6,1.6,3.1,1.9,5.1,1c1.4-0.7,2.9-2,4.8-4.5c0.8-1.1,1.8-2.3,2.1-2.7l1.5-1.7c0.8-0.4,1.2-0.8,1.6-1.7c0.6-1.2,0.8-3.6,0.1-4.8
	c-0.3-0.5-1-1.3-1.7-2l1.2-2.1c0.6-1.1,1.3-2.5,1.6-3.2c0.1-0.2,0.1-0.3,0.2-0.4c0,0,0,0,0.1,0c0.4,0.1,0.6-0.2,0.8-0.7
	C78.8,14.3,79,13.1,78.6,12.6z M42.4,12.2c-0.1-0.2-0.3-0.4-0.5-0.6l-0.1-0.1c0.2,0,0.3,0,0.4-0.2c0.1-0.1,0.1-0.2,0.2-0.3
	c0,0.1,0,0.2,0,0.4L42.4,12.2z M42.7,7.1c0,0.3-0.1,0.6-0.1,1V7.9c0-0.1,0-0.4-0.1-0.6C42.5,7.2,42.6,7.1,42.7,7.1z M41.6,9.3
	l0.9,0.8c0,0.2,0,0.5,0,0.7c-0.1-0.3-0.3-0.7-0.6-1.1C41.7,9.6,41.6,9.4,41.6,9.3z M41.6,14.4c0.2,0,0.4,0,0.6-0.1
	c0.1-0.1,0.1-0.1,0.2-0.2v0.7l0.3,0.3C42.4,14.9,42,14.6,41.6,14.4z M68,13.8l-0.8,1.6c-0.1-0.1-0.2-0.2-0.4-0.3
	C67.2,15,67.5,14.7,68,13.8L68,13.8z M68,18.6c0-0.2-0.1-0.5-0.1-0.7C68,18.1,68,18.4,68,18.6z M65,22.7C65,22.8,65.1,22.8,65,22.7
	c-0.1,0.1-0.4,0.1-0.7,0c-0.1,0-0.1,0-0.2-0.1l0,0c0.1,0,0.3,0,0.4-0.1c0.1,0,0.2-0.1,0.4-0.5H65C64.9,22.3,64.8,22.5,65,22.7z
	 M60.6,19.8c0-0.2,0-0.3,0-0.5c0.1,0.1,0.1,0.1,0.3,0.1c0.1,0,0.2,0,0.3,0c0,0.8,0.1,1.6,0.5,2c0,0.1,0.1,0.1,0.2,0.2
	c-0.4-0.2-0.7-0.5-0.9-0.7C60.5,20.6,60.5,20.6,60.6,19.8z M56.6,26.4c0.2-0.4,0.3-0.7,0-1c-0.4-0.3-1.2-0.6-1.7-0.6s-1.5,0.4-2.4,1
	c0.4-0.3,0.8-0.6,1.2-0.8l1.9-1c0.4,0.3,0.9,0.6,1.3,0.8c0.4,0.2,0.8,0.3,1.1,0.3c0.2,0,0.4-0.1,0.5-0.3c0.3-0.5-0.3-0.8-0.6-1
	c0,0-0.1-0.1-0.2-0.1c0.9,0.4,1,0.4,1.1,0.4h0.3l0.1-0.3c0.1-0.3,0-0.6-0.6-1.4c-0.3-0.4-0.5-0.6-0.5-0.7c0.2-0.1,0.3-0.4,0.4-0.9
	c0.2,0.9,0.5,1.9,1,2.8c0.3,0.5,0.7,1.1,1.2,1.7l-2.2,0.4C58.2,25.7,57.3,26.1,56.6,26.4L56.6,26.4z M61.8,30
	c-0.1,0.2-0.1,0.4-0.1,0.7c-0.1-0.1-0.2-0.2-0.4-0.3c-0.4-0.1-0.6,0.2-0.7,0.4c-0.3,0.5-0.4,1.2-0.3,2c0,0,0,0,0-0.1
	C60,32.2,60,31,60.3,30c0.3-0.9,0.3-1.2,0.1-1.5c-0.1-0.1-0.3-0.2-0.4-0.2h-0.1c-0.4,0.1-0.9,0.6-1.3,1.2c0.3-0.7,0.6-1.2,1.2-1.7
	c0.3-0.3,0.9-0.8,0.5-1.2c-0.1-0.2-0.3-0.2-0.4-0.2l1-1c0.5,0.6,1.1,1.2,1.7,1.7L61.8,30z M67,29.5c-0.3-0.1-0.7-0.2-1.1-0.3
	c-1.2-0.4-1.3-0.4-1.4-0.3l-0.3,0.3v0.3c0,0.1,0.1,0.2,0.2,0.4c-0.5-0.4-0.9-0.5-1.2-0.2c-0.1,0.2-0.2,0.4-0.2,0.6v-0.1l-0.1-2.9
	c0.6,0.5,1.2,0.9,1.7,1.1c1.1,0.6,1.5,0.6,3.3,0.6l0,0L67,29.5z"/>
<path d="M54,0.4c-0.6,0.3-1.2,0.8-1.4,1c-0.2,0.3-0.4,0.5-0.5,0.5s-0.6-0.3-1.2-0.8c-1.1-0.7-1.2-0.7-2.7-0.7
	c-2.2,0-3.4,0.6-4.9,2.3c-0.6,0.7-1.7,1.9-2.4,2.7c-1,1.1-1.5,1.9-2.1,3.3c-0.4,1-1.5,3-2.4,4.3c-2.7,4.2-3.3,5.6-3.6,9.1
	c-0.3,3.3-1.1,8.1-1.6,9.6c-1,3.3-2.6,5.8-6.1,9.4l-2.6,2.7v-1.4c0-2.5-0.6-4.1-2.3-6.2l-0.9-1.1l0.2-4.9c0.2-4.4,0.2-5-0.1-5.8
	c-0.7-1.9-2.2-2.9-4.1-2.9c-2.6,0-4.5,1.9-4.5,4.4c0,1.8,0.9,3.2,2.5,4c0.6,0.3,0.6,0.4,0.6,1.2V32l-1.3-0.3
	c-0.8-0.1-1.8-0.2-2.3-0.2H9.4l0.1-3.7C9.7,21.1,9.7,21,9,19.9c-1.5-2.6-5-3-7-0.9c-0.5,0.5-0.9,1.1-1,1.4c-0.4,1.2-0.5,2.3,0,3.3
	c0.3,0.8,1.4,1.9,2.2,2.3L4,26.4l-0.1,3.7l-0.1,3.7l-0.9,1C0.9,37,0,38.8,0,42c0,2,0.3,2.6,0.8,3.7c0.9,2.4,2.9,4.7,5,5.7l0.7,0.3
	l-0.1,3.5c-0.1,3.7,0.2,7.6,0.7,10C9.3,75.8,17,81,32.2,81.9c4.1,0.3,22.8,0.3,26.2,0c5.4-0.4,8.8-1.2,10.1-2.4
	c0.5-0.5,0.6-0.7,0.6-1.6c0-1-0.1-1.1-0.9-1.9c-1.4-1.3-3.9-2.2-13-4.7c-6.9-1.8-13.6-4.1-16.4-5.5L38,65.4l0.9-1.4
	c0.5-0.8,2.3-4.2,4.1-7.5c3.9-7.2,5.7-10.2,7.4-12.5c1.6-2.1,2.3-2.7,4.1-2.8c0.8-0.1,2.9-0.4,4.7-0.8c1.9-0.4,4-0.8,4.7-0.9
	c3.3-0.5,4.4-1.3,7.2-5.5c1-1.6,2.3-3.2,2.8-3.6c2.7-2.3,3-2.8,3-4.9c0-1.3-0.4-2.2-1.2-3.2c-0.5-0.6-0.6-0.9-0.5-1.2
	c0.2-0.7,1.8-3.9,2.6-5.2c0.6-1,0.7-1.3,0.7-2.5s-0.1-1.4-0.9-2.6c-1.3-2-3.1-2.9-5.8-2.9h-1.3L70.1,7c-0.9-2.1-3.1-3.3-6.6-3.4
	l-2,0.1l-0.2-0.6c-0.3-0.8-1.7-2.2-2.6-2.7C58.3,0.2,57.4,0,56.5,0C55.2-0.1,55,0,54,0.4z M57.6,0.7L57,0.9l0.8,0.2
	c1.2,0.4,2,0.9,2.6,1.8c0.8,1.2,0.8,2.2,0,3.3c-0.3,0.4-0.6,0.9-0.5,1c0,0.1-0.1,0.3-0.2,0.5c-0.3,0.3-1.9,3.2-3.8,7.1
	c-0.7,1.3-1.5,2.8-1.8,3.2c-0.4,0.5-0.7,1-0.7,1.1c0,0.3-1.5,0-2.2-0.5c-0.3-0.2-0.6-0.3-0.6-0.2c0,0.3,0.9,1,1.7,1.2
	c1.1,0.4,0.8,0.7-0.4,0.6c-0.5,0-1.9-0.9-2.3-1.3c-0.2-0.3-0.2-0.3,0.2-0.2c0.4,0.1,0.4,0.1-0.1-0.4c-0.9-0.9-1-1.6-0.9-3.7
	c0.4-4,1-6.3,2.8-10c1.5-3.1,2.7-4,5.3-4C57.9,0.6,58.1,0.6,57.6,0.7z M49.8,1.3c0.9,0.4,2,1.5,1.8,1.7c-0.1,0.1-0.4-0.1-0.7-0.4
	c-0.8-0.7-1.3-0.7-0.6,0c0.4,0.4,0.5,0.6,0.3,0.8c-0.1,0.2-0.2,0.7-0.3,1.2S50,5.7,49.8,6c-0.2,0.3-0.4,0.7-0.5,1S49,8.3,48.8,9.1
	c-0.6,2.2-1.2,5.5-1.2,6.3c0,0.7-0.1,0.8-0.5,0.8c-0.7,0-0.9,0.3-0.3,0.5c0.3,0.1,0.2,0.1-0.2,0.1c-1,0-2.2-0.6-3.1-1.6l-0.8-0.9
	l0.1-3.4c0-3.8,0.2-4.7,1.3-7c0.7-1.6,0.8-1.6,2.2-2.3C47.9,0.8,48.7,0.7,49.8,1.3z M43.2,4.3c-0.2,0.1-0.3,0.4-0.3,0.8
	c0,1.2-0.6,2.3-0.9,1.6c-0.1-0.1-0.1,0.3,0,1c0.1,1.4-0.1,1.6-0.8,0.6c-0.2-0.4-0.5-0.7-0.5-0.7c-0.3,0,0.2,1.8,0.8,2.4
	c0.8,1,0.7,1.3-0.3,0.6l-0.8-0.5l0.2,0.5c0.1,0.2,0.5,0.7,0.8,1c0.5,0.6,0.9,2.2,0.6,2.4c-0.1,0.1-1.4-0.3-2.6-0.8
	c-0.2-0.1-0.4-0.1-0.4,0.1c0,0.3,1.9,1.3,2.6,1.5c0.3,0.1,0.7,0.4,0.9,0.7c0.3,0.6,0.3,0.6-0.1,0.6c-0.3,0-0.8-0.1-1.1-0.2
	c-0.3-0.1-0.6-0.2-0.6-0.1c0,0,0.8,0.5,1.8,1s1.8,1,1.8,1.1c0,0.3-1.7,0-3.6-0.7c-2.1-0.8-1.9-0.5,0.3,0.7c1.8,0.9,3.5,1.3,5,1.1
	c1.2-0.1,2.5,0.2,2.5,0.6c0,0.2,0.3,0.6,0.6,1l0.6,0.7l-0.5,0.4c-1.7,1.4-3.9,2.5-6.8,3.3c-0.7,0.2-1.7,0.6-2.4,0.8
	s-1.7,0.5-2.4,0.5c-1,0.1-1.1,0.2-0.7,0.3c0.9,0.4,2.3,0.2,3.6-0.4c1.6-0.7,1.8-0.8,1.4-0.1c-0.3,0.5-0.2,0.4,1-0.2
	c1.4-0.8,1.9-0.8,1.3,0c-0.3,0.4-0.3,0.3,0.3-0.1c1.9-1.4,4.8-2.3,5.6-1.7c0.4,0.3,0.3,0.3-0.5,1c-0.5,0.4-1,0.9-1.1,1.2
	c-0.1,0.2,0.3,0,0.9-0.6c0.6-0.6,1.5-1.2,1.9-1.4c0.9-0.4,2.6-0.7,3-0.5c0.3,0.1,0.1,0.3-0.8,0.7c-1.3,0.7-2.5,1.8-3,2.9
	c-0.5,1.1-0.5,1.3,0.1,0.4c0.8-1.1,3.2-2.6,4.3-2.6c0.3,0,0.8,0.1,1.1,0.2l0.5,0.2L56,26.5l-0.5,0.9l1.1-0.6
	c0.7-0.4,1.5-0.7,2.1-0.7l1.1-0.1l-0.6,0.4c-0.3,0.2-0.7,0.6-0.8,0.7c-0.1,0.2,0,0.2,0.7-0.1c0.5-0.2,1.1-0.4,1.2-0.3
	c0.3,0.1,0.2,0.1-0.2,0.3c-0.7,0.3-1.7,1.3-2.1,2.2c-0.2,0.4-0.4,1.1-0.4,1.7l-0.1,1l0.6-1.2c0.5-1.1,1.4-2.1,1.9-2.1
	c0.1,0,0.1,0.2,0.1,0.3c-0.1,0.2-0.3,0.9-0.5,1.5c-0.4,1.4-0.1,2.4,0.9,3.5c0.5,0.5,0.6,0.6,0.6,0.3c-0.7-2-0.7-2-0.5-2.7
	c0.1-0.4,0.3-0.7,0.4-0.7s0.4,0.5,0.6,1.1c0.4,1.1,1,2,0.7,1c-0.1-0.3-0.2-1.1-0.3-1.8c-0.1-1,0-1.4,0.2-1.7
	c0.3-0.4,0.3-0.3,0.3,0.6c0,1.1,0.4,2.1,1.1,2.7l0.5,0.5l-0.5-1.1c-0.4-0.8-0.5-1.3-0.4-1.7c0.1-0.3,0.2-0.6,0.2-0.6
	c0.1,0,0.4,0.2,0.8,0.5c0.6,0.5,2,1.1,2.5,1.1c0.1,0,0-0.1-0.4-0.3c-0.4-0.4-1.4-1.2-1.7-1.7c-0.2-0.3,0-0.3,1.2,0.2
	c0.8,0.3,1.8,0.5,2.3,0.5H69l-0.8-0.2l-0.8-0.2l1-0.4l1-0.5l-1.1,0.1c-2.1,0.2-4.4-0.8-6.3-2.7c-1.7-1.7-2.9-4.1-3.2-6.5
	c-0.3-1.9,0.8-4.3,2.3-5.2c0.9-0.6,2.7-0.5,3.9,0.1c0.5,0.3,2.2,1.6,3.8,3c1.6,1.4,3.4,2.8,3.9,3.1c1.3,0.7,2.6,2,3.1,3
	s0.5,2.6,0.1,3.9c-0.5,1.4-1.3,2-3.6,2.6c-1.1,0.3-2,0.6-2,0.7c0,0.1-0.4,0.4-0.8,0.6l-0.9,0.4l1.3-0.2c0.6,0,1.3-0.2,1.5-0.4
	c0.4-0.4,2.2-1.1,2.2-1s-0.3,0.4-0.6,0.8c-0.3,0.3-1.4,1.6-2.4,2.9c-1.9,2.5-3,3.5-4.3,4.2c-2,1-3.1,0.8-4.6-0.7
	c-0.5-0.5-0.9-0.9-0.8-0.8c0.1,0.1,0.1,0.4,0,0.6c-0.1,0.3-0.2,0.3-0.6-0.2c-0.6-0.6-1-1.3-1.2-2.3L58.9,34v0.7c0,1.3,0.6,2.4,2,3.4
	l1.2,0.9l-0.7,0.1c-4.6,0.8-5.9,1-7.4,1.1c-1,0.1-1.8,0.1-1.8,0S52,40,51.7,40c-1.3,0-4.1-1.3-6.1-2.9c-2.5-2-3.4-3.2-3.6-5.3
	c-0.2-1.2,0.2-2.1,1.6-3.6c0.9-1,0.9-1,0.3-0.7c-1,0.6-2.4,2.2-2.6,3.2L41,31.6l-0.3-0.5c-0.5-0.7-0.4-1.3,0.2-2.2
	c0.4-0.7,0.5-0.7,0.1-0.5c-0.6,0.3-1.4,1.4-1.4,1.9c0,0.3-0.1,0.5-0.3,0.5s0,0.2,0.5,0.7c0.5,0.4,1,1.2,1.3,1.7
	c0.5,0.9,0.5,1,0.1,0.8s-0.4-0.2,0.1,0.8c0.7,1.3,1.3,2.1,2.4,2.6c0.4,0.2,1.3,0.8,2,1.2c0.6,0.4,1.8,1.1,2.6,1.4l1.4,0.7h-0.8
	c-1.2,0-3.6-0.7-5-1.6c-2.3-1.4-2.5-1.3-0.6,0.3c1.3,1.1,2.8,1.7,4.7,1.9l1.4,0.1l-0.8,0.4c-0.5,0.2-0.9,0.5-0.9,0.6s0.6,0.1,1.4,0
	c1-0.1,1.4-0.1,1.3,0.1c-0.1,0.1-0.5,0.7-0.9,1.3c-1,1.5-4,6.8-6.6,11.6c-1.2,2.2-2.9,5.3-3.9,6.9s-1.8,3.1-1.8,3.4
	c0,0.6,0.4,0.8,4,2.3c3.4,1.4,8.1,2.9,15.7,5c8.1,2.2,10,2.9,11.1,4c0.7,0.7,0.6,1.5,0,2.1c-1.2,0.9-4.8,1.6-10.3,2
	c-3.8,0.2-18.3,0.3-23.5,0c-10.2-0.5-16.5-2.5-20.8-6.6c-2.2-2.1-3.6-4.5-4.5-7.8c-0.8-2.9-1-4.7-1-10.4V51l-1.1-0.5
	c-1.5-0.7-3.6-2.7-4.3-4.3c-1.3-2.8-1.3-5.7,0.1-8.5c0.4-0.9,1.1-1.9,1.7-2.4l0.9-1l0.2-4.5l0.1-4.5l-0.7-0.1
	c-0.8-0.2-1.9-1-2.3-1.7c-0.4-0.7-0.4-2.4,0-3.1c0.4-0.8,1.4-1.6,2.3-1.8C6.2,18.2,8,19,8.7,20.4C9,20.9,9,21.7,8.9,26.8l-0.6,5.9
	l1.1-0.2c1.3-0.2,3.2,0,4.6,0.5c0.5,0.2,0.9,0.3,0.9,0.3s0.1-0.9,0.1-2.1v-2.1L14.5,29c-2.8-0.6-3.6-4.4-1.2-6.1
	c0.8-0.5,1.9-0.8,2.8-0.5c1,0.3,2.2,1.4,2.4,2.4c0.1,0.4,0.1,2.6,0,5.7l-0.2,5l0.9,1c1.9,2.2,2.7,4.9,2,7.4c-0.2,0.9-0.2,1.1,0,1.2
	c0.5,0.3,1.6-0.6,4.5-3.6c3-3,4.8-5.4,5.8-7.6l0.8-1.6l0.2,0.7c0.2,0.7,0.9,1.5,1.9,2.3l0.6,0.5l-0.5-0.9c-0.5-0.9-1.3-3.4-1.3-4
	c0-0.2,0.2,0,0.4,0.4c0.5,0.8,1.9,1.6,3.8,2.1c0.9,0.2,1.8,0.6,2.1,0.8l0.6,0.4l-0.4-0.5c-0.2-0.3-1.4-1.5-2.6-2.7
	c-1.2-1.2-2.4-2.5-2.6-2.8L34.1,28l0.3,0.8c0.4,0.9,1,1.9,2.1,2.9c0.4,0.4,0.6,0.8,0.6,0.8c-0.4,0-2.6-1.4-3-2
	c-1-1.2-1.1-2.7-0.5-6.9c0.2-1.1,0.5-2.9,0.6-3.9c0.4-2.4,1-3.9,3-7.1c0.9-1.4,1.8-3,2-3.5c0.3-0.7,0.5-0.9,0.7-0.7
	c0.2,0.2,0.3,0,0.3-0.8c0.1-0.9,0.2-1.1,1.7-2.5c0.9-0.9,1.6-1.5,1.6-1.4C43.5,4.1,43.4,4.2,43.2,4.3z M67,4.9
	c0.9,0.4,2.2,1.5,2.2,1.9c0,0.1,0.1,0.4,0.1,0.6c0,0.3,0.1,0.8,0.2,1.2c0.1,0.5,0.1,0.8-0.1,0.8c-0.1,0-0.2,0.3-0.2,0.7
	c0,0.7-1.2,3.1-2.2,4.4L66.6,15l-1-0.7c-1.4-1-2.2-1.2-3.5-0.8c-1.3,0.4-2.9,1.7-3.5,3c-0.3,0.7-0.4,1.2-0.4,2.7c0,1-0.1,2-0.2,2.1
	c-0.3,0.3-0.1,0.7,0.6,1.5c0.9,1,0.5,1-1.4,0c-0.8-0.4-1.4-0.7-1.4-0.6s0.6,0.6,1.2,1.2c1.7,1.4,1.7,1.3,0.9,1.2
	c-1.1-0.2-1.8-0.7-2.8-1.8c-0.9-0.9-1-1.4-0.9-2.2c0.1-0.5,4.6-9.4,5.5-10.9c0.5-0.7,1.1-1.9,1.4-2.5s1-1.5,1.4-1.9l0.9-0.7
	l-0.8,0.3c-0.9,0.4-1,0.4-0.9,0.1C62,4.1,65.4,4.2,67,4.9z M75.3,9.3c0.9,0.4,2.1,1.7,2.3,2.5c0.1,0.3,0.3,0.6,0.4,0.7
	c0.4,0.3,0.4,1.4,0.1,2.3l-0.3,0.7l-0.1-0.6c-0.1-0.5-0.2-0.5-0.6,0.8c-0.3,0.8-0.8,1.9-1.2,2.6c-0.4,0.7-0.9,1.6-1.1,2l-0.4,0.8
	l-1.4-1c-1.6-1.1-5.3-4.2-5.3-4.4c0-0.1,0.4-0.9,0.8-1.9c0.8-1.8,1.3-2.4,3-3.7l0.8-0.6l-1,0.2c-1.1,0.1-1.2,0.1-0.5-0.4
	C72,8.6,73.8,8.6,75.3,9.3z"/>
<path d="M63,14.9c-1.6,0.6-2.7,2.3-2.8,4.7l-0.1,1.3l0.9,0.6c1.2,0.9,3.1,1.8,3.8,1.8c0.7,0,1.8-0.6,2.1-1.2
	c0.2-0.4,0.2-0.4-0.6,0.1c-0.6,0.3-1.2,0.5-1.4,0.5c-0.4,0-0.3-0.1,0.4-0.5c0.5-0.2,1.4-0.9,2-1.5c1.1-1,1.1-1.2,1.1-2
	c0-0.5-0.1-1.1-0.3-1.3c-0.3-0.4-0.3-0.4-0.2,0c0.1,0.2-0.4-0.2-1.1-0.8C65.1,14.8,64.2,14.4,63,14.9z M64.9,15.4
	c3.4,1.7,3.7,4.4,0.7,6.3L65,22.1l0.1-0.8c0.1-0.4,0.3-1,0.4-1.2c0.2-0.2,0.3-0.5,0.3-0.6c0-0.4-0.8,1.1-1.1,2
	c-0.4,1.1-0.7,1.2-2,0.5c-0.7-0.4-0.9-0.7-1.1-1.3c-0.3-1.1,0-2.5,0.8-3.8c0.5-0.9,0.5-0.9,0.2-0.6c-0.6,0.4-1.5,2.4-1.5,3.4
	c0,0.7,0,0.8-0.2,0.5c-0.5-0.9,0.3-3.7,1.4-4.7C63,14.9,63.8,14.8,64.9,15.4z"/>
<g>
	<path d="M86,49.9H88V33.1H86V31h8.2c6.7,0,10.8,4.5,10.8,10.5c0,6.4-4.2,10.5-10.8,10.5H86V49.9z M94,49.8c5.4,0,8.5-3.1,8.5-8.3
		c0-5-3.1-8.3-8.5-8.3h-3.5v16.6H94z"/>
	<path d="M109.3,31h12.3v2.2h-9.9v7h8.8v2.2h-8.8v7.5h10.2V52h-12.6V31z"/>
	<path d="M125.1,41.5c0-6.2,4.6-10.9,10.6-10.9c4.4,0,7.6,2.3,9.1,5.2l-2,1.2c-1-2-3.4-4.1-7-4.1c-4.7,0-8.1,3.7-8.1,8.6
		c0,5,3.2,8.7,8,8.7c4.3,0,7.7-3.4,7.7-7.2v-0.1h-7.5v-2.2h9.8V52h-2.4v-4.6h-0.6c-1,3.4-3.9,5-7.6,5
		C129.2,52.4,125.1,47.7,125.1,41.5z"/>
	<path d="M150.6,31h7.6c4.5,0,7,2.6,7,5.9c0,2.2-1.2,4.1-3.5,4.5V42c1.4,0.4,3.3,1.8,3.3,4.8V52h-2.5v-5.2c0-2.1-1.3-3.3-3.7-3.3
		H153V52h-2.4V31z M158.3,41.4c2.5,0,4.3-1.7,4.3-4.1c0-2.2-1.5-4-4.5-4H153v8.2H158.3z"/>
	<path d="M168.9,41.5c0-6.2,4.6-10.9,10.6-10.9c6.1,0,10.6,4.8,10.6,10.9c0,6.2-4.6,10.9-10.7,10.9
		C173.4,52.4,168.9,47.7,168.9,41.5z M179.5,50.1c4.7,0,8.2-3.6,8.2-8.6c0-4.9-3.5-8.6-8.2-8.6s-8.2,3.7-8.2,8.6
		C171.4,46.5,174.9,50.1,179.5,50.1z"/>
	<path d="M192.4,31.3V31h2.5l4.3,19h0.6l4-19h4.4l4,19h0.6l4.3-19h2.4v0.3L214.8,52h-4.4l-4-19h-0.6l-4,19h-4.4L192.4,31.3z"/>
	<path d="M228.5,33.3h-6.8V31h16.2v2.2h-6.9V52h-2.4V33.3z"/>
	<path d="M255.4,42.5h-11.2V52h-2.4V31h2.4v9.2h11.2V31h2.4v21h-2.4V42.5z"/>
	<path d="M84.9,71.5c0-6.1,4.6-10.9,11.1-10.9c4.9,0,8.2,2.4,9.8,5.9l-4.2,2.2c-0.9-2.2-3-3.6-5.6-3.6c-3.4,0-6.3,2.5-6.3,6.4
		c0,3.9,2.9,6.4,6.3,6.4c2.8,0,5.2-1.7,6-4.4l4.3,1.9c-1.4,4-5.1,6.9-10.3,6.9C89.5,82.4,84.9,77.7,84.9,71.5z"/>
	<path d="M108.1,71.5c0-6.1,4.6-10.9,11.1-10.9c6.5,0,11.1,4.8,11.1,10.9c0,6.1-4.6,10.9-11.2,10.9
		C112.7,82.4,108.1,77.7,108.1,71.5z M119.2,77.9c3.4,0,6.3-2.5,6.3-6.4c0-3.9-2.9-6.4-6.3-6.4s-6.3,2.5-6.3,6.4
		C112.9,75.4,115.8,77.9,119.2,77.9z"/>
	<path d="M133.5,61h4.6v16.7h8.9V82h-13.6V61z"/>
	<path d="M149.8,61h4.6v16.7h8.9V82h-13.6V61z"/>
	<path d="M166.1,61h13.5v4.3h-8.8v3.9h7.8v4.2h-7.8v4.3h9.2V82h-13.8V61z"/>
	<path d="M182,71.5c0-6.1,4.6-10.9,11.1-10.9c4.9,0,8.2,2.4,9.8,5.9l-4.2,2.2c-0.9-2.2-3-3.6-5.6-3.6c-3.4,0-6.3,2.5-6.3,6.4
		c0,3.9,2.9,6.4,6.3,6.4c2.8,0,5.2-1.7,6-4.4l4.3,1.9c-1.4,4-5.1,6.9-10.3,6.9C186.6,82.4,182,77.7,182,71.5z"/>
	<path d="M211.1,65.3h-6.3V61h17.4v4.3h-6.4V82h-4.7V65.3z"/>
	<path d="M224.8,77.7h4V65.3h-4V61h12.7v4.3h-4v12.3h4V82h-12.7V77.7z"/>
	<path d="M239.6,61.6V61h4.9l4.8,16.9h0.6l4.9-16.9h4.9v0.6L253.4,82h-7.5L239.6,61.6z"/>
	<path d="M262.3,61h13.5v4.3h-8.8v3.9h7.8v4.2h-7.8v4.3h9.2V82h-13.8V61z"/>
</g>
</svg>
